<svg width="1280" height="900" viewBox="0 0 1280 900" fill="none" xmlns="http://www.w3.org/2000/svg">
  <rect width="1280" height="900" fill="#0F172A"/>
  <rect x="96" y="90" width="1088" height="720" rx="34" fill="#F8F3EE"/>
  <rect x="96" y="90" width="1088" height="720" rx="34" stroke="#7B1E2B" stroke-width="8"/>
  <rect x="150" y="148" width="980" height="76" rx="18" fill="#FFFFFF"/>
  <circle cx="190" cy="186" r="10" fill="#7B1E2B"/>
  <circle cx="222" cy="186" r="10" fill="#C86A43"/>
  <circle cx="254" cy="186" r="10" fill="#111827"/>
  <text x="604" y="196" fill="#7B1E2B" font-family="Georgia, serif" font-size="28" font-weight="700" text-anchor="middle">LevelUp Interiores</text>
  <rect x="150" y="270" width="460" height="408" rx="28" fill="#1F2937"/>
  <rect x="190" y="316" width="380" height="38" rx="19" fill="#F8F3EE" opacity="0.9"/>
  <rect x="190" y="380" width="300" height="22" rx="11" fill="#F8F3EE" opacity="0.55"/>
  <rect x="190" y="426" width="340" height="22" rx="11" fill="#F8F3EE" opacity="0.35"/>
  <rect x="190" y="500" width="190" height="52" rx="26" fill="#7B1E2B"/>
  <rect x="652" y="270" width="478" height="408" rx="28" fill="#DDD1C4"/>
  <rect x="692" y="310" width="398" height="328" rx="22" fill="#C9B8A7"/>
  <path d="M732 593H1050V362H732V593Z" fill="#EEE5DA"/>
  <path d="M782 593V418H864V593M934 593V456H1016V593" stroke="#7B1E2B" stroke-width="14" stroke-linecap="round"/>
  <rect x="150" y="718" width="980" height="32" rx="16" fill="#7B1E2B" opacity="0.18"/>
  <rect x="150" y="770" width="580" height="24" rx="12" fill="#111827" opacity="0.18"/>
</svg>
